# xmcd
#
# Track frame offsets:
#	150
#	24633
#	41936
#	63055
#	82082
#	100542
#	118798
#	144693
#	166604
#	182175
#	208681
#
# Disc length: 3268 seconds
#
# Revision: 0
# Processed by: cddbd v1.4PL0 Copyright (c) Steve Scherf et al.
# Submitted via: dBpowerAMP V4.0
#
DISCID=950cc20b
DTITLE=Guy Tortora - Footnote To The Blues
DYEAR=2002
DGENRE=Blues
TTITLE0=Long Slow Blues
TTITLE1=Hallowed Ground
TTITLE2=I Need A Car
TTITLE3=Late Starter
TTITLE4=I Heard It Through The Grape Vine
TTITLE5=Did Somebody Make A Fool Of You
TTITLE6=Love Nor Money
TTITLE7=Tough Love
TTITLE8=Crossroad Blues
TTITLE9=Sanctified Love
TTITLE10=Going Down Slow
EXTD=
EXTT0=
EXTT1=
EXTT2=
EXTT3=
EXTT4=
EXTT5=
EXTT6=
EXTT7=
EXTT8=
EXTT9=
EXTT10=
PLAYORDER=
